<?xml version="1.0" encoding="UTF-8"?>
<svg width="210mm" height="210mm" version="1.1" viewBox="0 0 210 210" xmlns="http://www.w3.org/2000/svg" xmlns:xlink="http://www.w3.org/1999/xlink">
 <defs>
  <radialGradient id="radialGradient1736" cx="379.87" cy="454.65" r="277.6" gradientTransform="matrix(1 0 0 1.1298 0 -59.008)" gradientUnits="userSpaceOnUse">
   <stop offset="0"/>
   <stop stop-opacity="0" offset="1"/>
  </radialGradient>
  <linearGradient id="linearGradient1748" x1="102.28" x2="657.47" y1="454.65" y2="454.65" gradientUnits="userSpaceOnUse">
   <stop stop-color="#0f0" offset="0"/>
   <stop stop-color="#0f0" stop-opacity="0" offset="1"/>
  </linearGradient>
  <radialGradient id="radialGradient3726" cx="-180.15" cy="-110.47" r="118.76" gradientTransform="matrix(.26458 0 0 .28924 8.9668 -82.128)" gradientUnits="userSpaceOnUse">
   <stop stop-color="#008080" offset="0"/>
   <stop stop-color="#008080" stop-opacity="0" offset="1"/>
  </radialGradient>
  <radialGradient id="radialGradient3740" cx="-78.824" cy="-30.992" r="148.69" gradientTransform="matrix(1 0 0 1.2011 0 6.2327)" gradientUnits="userSpaceOnUse">
   <stop stop-color="#f60" offset="0"/>
   <stop stop-color="#f60" stop-opacity="0" offset="1"/>
  </radialGradient>
 </defs>
 <g transform="translate(-.13229 -15.743)">
  <path d="m71.305 37.042v81.889h-44.847-0.29154l0.19199 0.21941c23.806 27.207 48.757 55.723 74.083 84.667l0.0996 0.11378 0.0996-0.11379c24.577-28.088 49.506-56.579 74.083-84.667l0.19198-0.21941h-0.29162-44.847v-81.889-0.13229h-0.13229-58.208zm0.13229 0.13229h58.076v81.889 0.13228h0.1323 44.688c-24.352 27.831-49.247 56.282-73.792 84.333-25.158-28.752-50.044-57.193-73.792-84.333h44.688 0.13229v-0.13229-82.021z" stroke="#000" stroke-width=".26458px"/>
  <path transform="scale(.26458)" d="m241.46 609.57-138.39-158.18h168.57v-310h217.14v309.99l167.9 0.36302-136.52 156.07c-75.084 85.839-137.37 156.94-138.41 158l-1.8984 1.9334z" fill="url(#linearGradient1748)" stroke="url(#radialGradient1736)" stroke-width=".71433"/>
 </g>
 <g transform="translate(80.155 135.45)">
  <g transform="rotate(14.706 -45.422 -69.148)" stroke="#000">
   <path d="m-36.581-55.636v46.767h-24.105-0.15532l0.09875 0.1199c12.796 15.537 26.209 31.822 39.822 48.352l0.05658 0.06869 0.05658-0.0687c13.211-16.04 26.611-32.311 39.822-48.352l0.09875-0.1199h-0.15532-24.105v-46.767-0.0733h-0.073297-31.289zm0.0733 0.0733h31.216v46.767 0.073291h0.0733 24.023c-13.093 15.898-26.474 32.145-39.667 48.163-13.522-16.418-26.9-32.662-39.667-48.163h24.023 0.0733v-0.073297-46.841z" stroke-width=".14659px"/>
   <path transform="scale(.26458)" d="m-152.95 58.058-74.027-89.887 90.042-0.36779v-177.13h116.43v177.13l89.831 0.36779-73.525 89.286c-40.439 49.107-73.795 89.556-74.124 89.887-0.32924 0.33077-33.911-39.848-74.626-89.286z" fill="url(#radialGradient3740)" stroke-width=".51024"/>
  </g>
 </g>
 <g transform="translate(212.47 90.537)">
  <g transform="rotate(-13.267 502.57 -2.607)" stroke="#000">
   <path d="m-51.278-148.56v33.916h-19.296-0.12623l0.08491 0.0934c10.242 11.268 20.978 23.079 31.874 35.067l0.04132 0.04546 0.04133-0.04547c10.574-11.633 21.3-23.434 31.874-35.067l0.084904-0.0934h-0.12623-19.296v-33.916-0.0558h-0.05584-25.044zm0.05585 0.0558h24.988v33.916 0.0558h0.05585 19.226c-10.476 11.525-21.187 23.31-31.748 34.928-10.825-11.909-21.531-23.688-31.748-34.928h19.226 0.05584v-0.0558-33.971z" stroke-width=".11169px"/>
   <path d="m-54.334-97.041-15.633-17.211 18.892-0.098v-34.014h24.757v34.014l18.892 0.098-14.762 16.253c-8.1193 8.9391-15.156 16.684-15.637 17.211l-0.87479 0.95765z" fill="url(#radialGradient3726)" stroke-width=".135"/>
  </g>
 </g>
</svg>
